<svg width="21" height="20" viewBox="0 0 21 20" fill="none" xmlns="http://www.w3.org/2000/svg">
<mask id="mask0_368_918" style="mask-type:alpha" maskUnits="userSpaceOnUse" x="1" y="0" width="19" height="20">
<path d="M10.8334 0.833374C15.8956 0.833374 19.999 4.93679 19.999 9.99892C19.999 15.0611 15.8956 19.1645 10.8334 19.1645C9.35066 19.1664 7.88972 18.8072 6.57695 18.1178L2.64493 19.1416C2.51355 19.1758 2.37551 19.1751 2.24448 19.1395C2.11346 19.1039 1.994 19.0347 1.89795 18.9388C1.80191 18.8428 1.7326 18.7234 1.69691 18.5925C1.66122 18.4615 1.66037 18.3234 1.69447 18.192L2.71734 14.2609C2.02608 12.9467 1.66584 11.4838 1.66789 9.99892C1.66789 4.93679 5.7713 0.833374 10.8334 0.833374Z" fill="#006FFD"/>
</mask>
<g mask="url(#mask0_368_918)">
<rect x="0.833344" width="20" height="20" fill="#005A76"/>
</g>
</svg>
